<svg width="344" height="60" viewBox="0 0 344 60" fill="none" xmlns="http://www.w3.org/2000/svg">
<path d="M13.3418 31.3691L19.5508 22.7539H24.2129L15.5547 34.248L24.4492 46H19.8516L13.4277 37.1484L7.00391 46H2.36328L11.2578 34.248L2.59961 22.7539H7.19727L13.3418 31.3691ZM30.7871 13H42.668V42.5625H50.252V46H30.7871V42.5625H38.6934V16.459H30.7871V13Z" fill="#007936"/>
<path d="M75.8828 49.2441H56.1816V46H75.8828V49.2441ZM181.586 49.2441H161.885V46H181.586V49.2441ZM232.525 33.9473H216.09V30.6816H232.525V33.9473ZM287.289 49.2441H267.588V46H287.289V49.2441Z" fill="#6D6D6D"/>
<path d="M84.2402 31.4551L91.1152 14.7188H93.8438L100.697 31.4551H97.0234L92.7695 21.0137L92.4473 19.5527L92.125 21.0137L87.9355 31.4551H84.2402ZM117.434 43.4219C117.434 42.5768 117.691 41.8535 118.207 41.252C118.723 40.6504 119.503 40.3496 120.549 40.3496C121.58 40.3496 122.361 40.6504 122.891 41.252C123.435 41.8392 123.707 42.5625 123.707 43.4219C123.707 44.2669 123.435 44.9759 122.891 45.5488C122.346 46.1217 121.566 46.4082 120.549 46.4082C119.518 46.4082 118.737 46.1217 118.207 45.5488C117.691 44.9616 117.434 44.2526 117.434 43.4219ZM117.434 24.6016C117.434 23.7565 117.691 23.0332 118.207 22.4316C118.723 21.8301 119.503 21.5293 120.549 21.5293C121.58 21.5293 122.361 21.8301 122.891 22.4316C123.435 23.0189 123.707 23.7422 123.707 24.6016C123.707 25.4466 123.435 26.1556 122.891 26.7285C122.346 27.3014 121.566 27.5879 120.549 27.5879C119.518 27.5879 118.737 27.3014 118.207 26.7285C117.691 26.1413 117.434 25.4323 117.434 24.6016ZM139.842 26.2129C140.157 25.7402 140.508 25.3105 140.895 24.9238C141.281 24.5228 141.689 24.1719 142.119 23.8711C142.807 23.3698 143.559 22.9902 144.375 22.7324C145.206 22.4746 146.087 22.3385 147.018 22.3242C148.235 22.3242 149.338 22.5033 150.326 22.8613C151.329 23.2051 152.181 23.7493 152.883 24.4941C153.585 25.2389 154.122 26.1842 154.494 27.3301C154.881 28.4616 155.074 29.8079 155.074 31.3691V46H151.1V31.3262C151.1 30.4095 150.992 29.6074 150.777 28.9199C150.562 28.2181 150.247 27.638 149.832 27.1797C149.388 26.6784 148.829 26.306 148.156 26.0625C147.483 25.8047 146.71 25.6829 145.836 25.6973C145.12 25.6973 144.439 25.7975 143.795 25.998C143.15 26.1986 142.556 26.485 142.012 26.8574C141.582 27.1439 141.181 27.4805 140.809 27.8672C140.451 28.2396 140.128 28.6549 139.842 29.1133V46H135.867V13H139.842V26.2129ZM309.697 46C309.54 45.6992 309.411 45.3268 309.311 44.8828C309.225 44.4245 309.16 43.9518 309.117 43.4648C308.716 43.8659 308.265 44.2454 307.764 44.6035C307.277 44.9616 306.74 45.2767 306.152 45.5488C305.551 45.821 304.913 46.0358 304.24 46.1934C303.567 46.3509 302.851 46.4297 302.092 46.4297C300.86 46.4297 299.743 46.2507 298.74 45.8926C297.752 45.5345 296.914 45.0475 296.227 44.4316C295.525 43.8301 294.98 43.1139 294.594 42.2832C294.221 41.4382 294.035 40.5286 294.035 39.5547C294.035 38.2799 294.286 37.1628 294.787 36.2031C295.303 35.2435 296.026 34.4414 296.957 33.7969C297.888 33.1667 299.005 32.694 300.309 32.3789C301.626 32.0638 303.094 31.9062 304.713 31.9062H309.053V30.0801C309.053 29.3783 308.924 28.748 308.666 28.1895C308.408 27.6309 308.043 27.151 307.57 26.75C307.098 26.3633 306.518 26.0625 305.83 25.8477C305.157 25.6328 304.398 25.5254 303.553 25.5254C302.765 25.5254 302.056 25.6257 301.426 25.8262C300.81 26.0267 300.287 26.2917 299.857 26.6211C299.428 26.9505 299.091 27.3444 298.848 27.8027C298.618 28.2467 298.504 28.7122 298.504 29.1992H294.508C294.522 28.3542 294.737 27.5234 295.152 26.707C295.582 25.8906 296.198 25.153 297 24.4941C297.788 23.8496 298.747 23.3268 299.879 22.9258C301.025 22.5247 302.321 22.3242 303.768 22.3242C305.085 22.3242 306.31 22.4889 307.441 22.8184C308.573 23.1335 309.554 23.6133 310.385 24.2578C311.201 24.9167 311.846 25.7331 312.318 26.707C312.791 27.681 313.027 28.8197 313.027 30.123V40.9297C313.027 41.7031 313.099 42.5267 313.242 43.4004C313.385 44.2598 313.586 45.0117 313.844 45.6562V46H309.697ZM302.672 42.9707C303.445 42.9707 304.169 42.8704 304.842 42.6699C305.515 42.4694 306.131 42.2044 306.689 41.875C307.234 41.5456 307.706 41.1732 308.107 40.7578C308.508 40.3281 308.824 39.8841 309.053 39.4258V34.7207H305.357C303.982 34.7207 302.779 34.8424 301.748 35.0859C300.731 35.3151 299.922 35.6732 299.32 36.1602C298.891 36.5039 298.561 36.9121 298.332 37.3848C298.117 37.8574 298.01 38.3945 298.01 38.9961C298.01 39.569 298.103 40.099 298.289 40.5859C298.49 41.0729 298.783 41.4883 299.17 41.832C299.557 42.1901 300.044 42.4694 300.631 42.6699C301.218 42.8704 301.898 42.9707 302.672 42.9707ZM326.777 46V25.8262H320.375V22.7539H326.777V21.1211C326.777 19.6315 326.992 18.3281 327.422 17.2109C327.866 16.0794 328.489 15.1341 329.291 14.375C330.079 13.6159 331.031 13.043 332.148 12.6562C333.266 12.2695 334.512 12.0762 335.887 12.0762C336.46 12.0762 337.025 12.112 337.584 12.1836C338.143 12.2409 338.694 12.3197 339.238 12.4199C339.596 12.4915 339.954 12.5703 340.312 12.6562C340.671 12.7279 341.036 12.8138 341.408 12.9141L340.936 16.2012C340.348 16.0007 339.661 15.8288 338.873 15.6855C338.1 15.528 337.269 15.4492 336.381 15.4492C335.479 15.4492 334.676 15.5638 333.975 15.793C333.287 16.0078 332.714 16.3372 332.256 16.7812C331.769 17.2396 331.396 17.834 331.139 18.5645C330.895 19.2949 330.773 20.1471 330.773 21.1211V22.7539H339.732V25.8262H330.773V46H326.777Z" fill="#872BFF"/>
<path d="M188.311 46V14.7188H195.551C196.768 14.7331 197.914 14.862 198.988 15.1055C200.077 15.3346 201.079 15.6641 201.996 16.0938C203.271 16.681 204.395 17.4544 205.369 18.4141C206.357 19.3594 207.145 20.4551 207.732 21.7012C208.262 22.7611 208.663 23.9212 208.936 25.1816C209.222 26.4421 209.372 27.7884 209.387 29.2207V31.5195C209.387 32.8945 209.251 34.1979 208.979 35.4297C208.721 36.6615 208.341 37.793 207.84 38.8242C207.324 39.8984 206.673 40.8724 205.885 41.7461C205.097 42.6198 204.216 43.3646 203.242 43.9805C202.211 44.625 201.044 45.1191 199.74 45.4629C198.451 45.8066 197.055 45.9857 195.551 46H188.311ZM192.35 17.9844V42.7559H195.551C196.697 42.7415 197.735 42.5983 198.666 42.3262C199.611 42.054 200.449 41.6673 201.18 41.166C201.953 40.6504 202.619 40.0202 203.178 39.2754C203.751 38.5163 204.202 37.6712 204.531 36.7402C204.818 35.9811 205.033 35.1647 205.176 34.291C205.319 33.403 205.398 32.4792 205.412 31.5195V29.1777C205.398 28.2038 205.312 27.2728 205.154 26.3848C205.011 25.4824 204.789 24.6445 204.488 23.8711C204.102 22.8685 203.579 21.9661 202.92 21.1641C202.275 20.3477 201.48 19.6888 200.535 19.1875C199.862 18.8151 199.11 18.5286 198.279 18.3281C197.449 18.1133 196.539 17.9987 195.551 17.9844H192.35Z" fill="#D30038"/>
<path d="M247.5 46V25.8262H241.098V22.7539H247.5V21.1211C247.5 19.6315 247.715 18.3281 248.145 17.2109C248.589 16.0794 249.212 15.1341 250.014 14.375C250.801 13.6159 251.754 13.043 252.871 12.6562C253.988 12.2695 255.234 12.0762 256.609 12.0762C257.182 12.0762 257.748 12.112 258.307 12.1836C258.865 12.2409 259.417 12.3197 259.961 12.4199C260.319 12.4915 260.677 12.5703 261.035 12.6562C261.393 12.7279 261.758 12.8138 262.131 12.9141L261.658 16.2012C261.071 16.0007 260.383 15.8288 259.596 15.6855C258.822 15.528 257.992 15.4492 257.104 15.4492C256.201 15.4492 255.399 15.5638 254.697 15.793C254.01 16.0078 253.437 16.3372 252.979 16.7812C252.492 17.2396 252.119 17.834 251.861 18.5645C251.618 19.2949 251.496 20.1471 251.496 21.1211V22.7539H260.455V25.8262H251.496V46H247.5Z" fill="black"/>
<rect x="216.5" y="0.5" width="51" height="59" fill="#77D6FF" fill-opacity="0.5" stroke="#308FFF" stroke-dasharray="3 3"/>
</svg>
