<svg width="435" height="357" viewBox="0 0 435 357" fill="none" xmlns="http://www.w3.org/2000/svg">
<path d="M9.8009 335.531C11.1077 336.228 12.5669 336.816 14.1786 337.296C15.8339 337.731 17.4892 337.949 19.1444 337.949C20.5819 337.949 21.9322 337.818 23.1955 337.557C24.4587 337.252 25.5477 336.795 26.4624 336.185C27.4207 335.531 28.1613 334.726 28.684 333.767C29.2502 332.809 29.5334 331.676 29.5334 330.37C29.5334 328.584 28.9235 327.124 27.7039 325.992C26.5278 324.859 25.0467 323.857 23.2608 322.986C21.4749 322.115 19.5365 321.266 17.4456 320.438C15.3547 319.61 13.4163 318.63 11.6304 317.498C9.84446 316.365 8.34166 314.993 7.12199 313.381C5.94588 311.726 5.35783 309.635 5.35783 307.109C5.35783 305.323 5.7063 303.711 6.40325 302.274C7.14377 300.836 8.16742 299.617 9.4742 298.615C10.781 297.613 12.3491 296.851 14.1786 296.328C16.0517 295.762 18.1208 295.478 20.3859 295.478C22.9994 295.478 25.3734 295.674 27.5079 296.066C29.6423 296.415 31.3411 296.894 32.6043 297.504L32.735 297.439V297.569H32.8003L32.735 297.765V308.22H27.8999V301.228C26.8109 300.967 25.613 300.749 24.3062 300.575C22.9994 300.401 21.6055 300.314 20.1245 300.314C18.687 300.314 17.3803 300.488 16.2042 300.836C15.0716 301.185 14.0915 301.664 13.2639 302.274C12.4798 302.84 11.87 303.515 11.4344 304.299C10.9988 305.083 10.781 305.911 10.781 306.782C10.781 308.481 11.369 309.897 12.5452 311.029C13.7648 312.162 15.2676 313.185 17.0536 314.1C18.8395 314.971 20.7779 315.842 22.8688 316.714C24.9596 317.585 26.898 318.609 28.684 319.785C30.4699 320.917 31.9509 322.289 33.127 323.901C34.3467 325.513 34.9565 327.516 34.9565 329.912C34.9565 331.872 34.5863 333.637 33.8458 335.205C33.1488 336.773 32.1252 338.123 30.7748 339.256C29.468 340.388 27.8346 341.259 25.8744 341.869C23.9578 342.479 21.7798 342.784 19.3404 342.784C17.6852 342.784 16.117 342.653 14.636 342.392C13.155 342.131 11.7829 341.804 10.5196 341.412C9.29997 341.02 8.1892 340.606 7.18733 340.17C6.22902 339.735 5.46672 339.365 4.90045 339.06L4.96579 338.864V328.279H9.8009V335.531ZM45.712 296.72C47.3673 296.328 49.1532 296.066 51.0698 295.936C52.9865 295.805 54.8813 295.74 56.7544 295.74C58.7581 295.74 60.7836 295.936 62.8309 296.328C64.9218 296.72 66.8166 297.439 68.5154 298.484C70.2143 299.529 71.5864 300.967 72.6318 302.796C73.7208 304.626 74.2653 306.956 74.2653 309.788C74.2653 312.576 73.7644 314.928 72.7625 316.844C71.7606 318.761 70.4321 320.329 68.7768 321.549C67.1215 322.725 65.2267 323.574 63.0923 324.097C60.9579 324.62 58.7581 324.881 56.493 324.881C56.2752 324.881 55.9049 324.881 55.3822 324.881C54.9031 324.881 54.3804 324.881 53.8141 324.881C53.2914 324.838 52.7687 324.794 52.2459 324.75C51.7232 324.707 51.353 324.663 51.1352 324.62V342H45.712V296.72ZM56.885 300.444C55.7525 300.444 54.6635 300.466 53.6181 300.51C52.5726 300.553 51.745 300.662 51.1352 300.836V319.785C51.353 319.872 51.7015 319.937 52.1806 319.981C52.6598 319.981 53.1607 320.002 53.6834 320.046C54.2061 320.046 54.7071 320.046 55.1862 320.046C55.6654 320.046 56.0138 320.046 56.2316 320.046C57.7127 320.046 59.1719 319.915 60.6094 319.654C62.0904 319.349 63.419 318.826 64.5951 318.086C65.7712 317.345 66.7077 316.3 67.4047 314.95C68.1452 313.599 68.5154 311.879 68.5154 309.788C68.5154 308.002 68.167 306.521 67.47 305.345C66.8166 304.125 65.9236 303.167 64.7911 302.47C63.7021 301.729 62.4607 301.206 61.0668 300.902C59.6728 300.597 58.2789 300.444 56.885 300.444ZM78.4868 296.262H88.9411V313.055H89.2678C90.4004 311.617 91.8596 310.506 93.6456 309.722C95.4315 308.938 97.3699 308.546 99.4608 308.546C109.044 308.546 113.835 314.078 113.835 325.142C113.835 330.762 112.289 335.074 109.196 338.08C106.104 341.042 101.704 342.523 95.9978 342.523C93.2971 342.523 90.8577 342.261 88.6798 341.739C86.5018 341.216 84.9119 340.606 83.91 339.909V300.64H78.4868V296.262ZM98.8074 312.924C96.1938 312.924 94.0812 313.665 92.4695 315.146C90.8577 316.627 89.6816 318.717 88.9411 321.418V336.446C89.943 336.969 91.1409 337.383 92.5348 337.688C93.9287 337.993 95.3879 338.145 96.9125 338.145C98.6549 338.145 100.223 337.905 101.617 337.426C103.054 336.904 104.274 336.119 105.276 335.074C106.278 333.985 107.04 332.613 107.563 330.958C108.129 329.302 108.412 327.342 108.412 325.077C108.412 323.422 108.238 321.854 107.89 320.373C107.541 318.892 106.975 317.607 106.191 316.518C105.45 315.385 104.47 314.514 103.25 313.904C102.031 313.251 100.55 312.924 98.8074 312.924ZM304.172 301.228C303.431 300.923 302.604 300.706 301.689 300.575C300.818 300.401 299.751 300.314 298.487 300.314C296.702 300.314 294.937 300.64 293.195 301.294C291.496 301.947 289.972 303.014 288.621 304.495C287.314 305.976 286.247 307.915 285.42 310.31C284.636 312.706 284.243 315.646 284.243 319.131C284.243 322.268 284.592 325.012 285.289 327.364C286.029 329.716 287.031 331.676 288.295 333.245C289.601 334.813 291.148 335.989 292.934 336.773C294.763 337.557 296.789 337.949 299.01 337.949C300.143 337.949 301.188 337.862 302.146 337.688C303.148 337.47 304.063 337.187 304.891 336.838V330.304H309.726V339.125L309.791 339.256C308.484 340.258 306.829 341.107 304.825 341.804C302.822 342.457 300.382 342.784 297.507 342.784C294.763 342.784 292.215 342.327 289.863 341.412C287.554 340.454 285.55 339.016 283.851 337.1C282.153 335.183 280.824 332.744 279.866 329.782C278.951 326.776 278.494 323.226 278.494 319.131C278.494 314.862 279.016 311.247 280.062 308.285C281.107 305.279 282.523 302.84 284.309 300.967C286.095 299.05 288.164 297.656 290.516 296.785C292.912 295.914 295.46 295.478 298.161 295.478C299.642 295.478 300.927 295.544 302.016 295.674C303.105 295.762 304.063 295.914 304.891 296.132C305.718 296.306 306.437 296.546 307.047 296.851C307.7 297.155 308.332 297.504 308.942 297.896H309.007V308.22H304.172V301.228ZM317.998 296.262H328.845V331.023C328.845 333.68 329.28 335.553 330.151 336.642C331.066 337.731 332.395 338.276 334.137 338.276C335.357 338.276 336.598 338.036 337.862 337.557C339.125 337.078 340.279 336.403 341.325 335.531L343.677 338.994C342.98 339.604 342.217 340.149 341.39 340.628C340.562 341.107 339.713 341.521 338.842 341.869C337.97 342.174 337.099 342.414 336.228 342.588C335.357 342.762 334.551 342.849 333.81 342.849C332.199 342.849 330.761 342.632 329.498 342.196C328.235 341.804 327.168 341.151 326.296 340.236C325.469 339.321 324.837 338.123 324.402 336.642C323.966 335.118 323.748 333.245 323.748 331.023V300.64H317.998V296.262ZM376.321 309.33H385.599V331.611C385.599 333.745 385.73 335.793 385.991 337.753H390.369V342H381.679L381.483 336.446H381.221C380.089 338.319 378.586 339.844 376.713 341.02C374.84 342.196 372.575 342.784 369.918 342.784C367.914 342.784 366.193 342.544 364.756 342.065C363.362 341.63 362.208 340.846 361.293 339.713C360.378 338.581 359.703 337.078 359.267 335.205C358.832 333.288 358.614 330.914 358.614 328.083V313.708H354.236V309.33H363.71V327.037C363.71 328.823 363.776 330.435 363.906 331.872C364.081 333.266 364.407 334.464 364.886 335.466C365.366 336.424 366.063 337.165 366.977 337.688C367.936 338.167 369.199 338.406 370.767 338.406C373.032 338.406 374.992 337.666 376.648 336.185C378.346 334.704 379.631 332.852 380.503 330.631V313.708H376.321V309.33ZM391.911 296.262H402.366V313.055H402.692C403.825 311.617 405.284 310.506 407.07 309.722C408.856 308.938 410.795 308.546 412.885 308.546C422.468 308.546 427.26 314.078 427.26 325.142C427.26 330.762 425.714 335.074 422.621 338.08C419.528 341.042 415.129 342.523 409.422 342.523C406.722 342.523 404.282 342.261 402.104 341.739C399.926 341.216 398.336 340.606 397.335 339.909V300.64H391.911V296.262ZM412.232 312.924C409.618 312.924 407.506 313.665 405.894 315.146C404.282 316.627 403.106 318.717 402.366 321.418V336.446C403.368 336.969 404.565 337.383 405.959 337.688C407.353 337.993 408.813 338.145 410.337 338.145C412.08 338.145 413.648 337.905 415.042 337.426C416.479 336.904 417.699 336.119 418.701 335.074C419.702 333.985 420.465 332.613 420.987 330.958C421.554 329.302 421.837 327.342 421.837 325.077C421.837 323.422 421.663 321.854 421.314 320.373C420.966 318.892 420.399 317.607 419.615 316.518C418.875 315.385 417.895 314.514 416.675 313.904C415.455 313.251 413.974 312.924 412.232 312.924Z" fill="white"/>
<path d="M160.633 296.262H191.996V301.098H178.993V337.165H191.996V342H160.633V337.165H173.57V301.098H160.633V296.262ZM198.504 296.262H232.48V308.22H227.645V301.098H218.171V337.165H225.358V342H205.561V337.165H212.748V301.098H203.339V308.22H198.504V296.262Z" fill="#FF6600"/>
<path d="M119.267 10.6851C117.111 12.0415 117.012 17.5864 119.247 18.6873C123.56 20.9952 124.884 22.6025 126.294 27.347L127.704 32.0914L121.721 35.0312C117.246 37.1705 113.747 37.7305 108.826 37.2072C86.6491 34.6436 63.4597 52.514 57.2316 76.8473C54.5953 87.2045 54.8381 100.277 57.6996 103.803C60.3486 107.018 83.3702 102.957 95.3124 97.2081C98.46 95.6319 99.8196 95.6175 101.693 97.1929C104.99 99.8515 115.234 101.652 120.739 100.522C123.296 99.9195 127.385 98.3858 129.828 96.9478C132.377 95.6657 137.458 93.9122 141.243 93.2707C151.32 91.6475 160.798 85.2974 164.691 77.6203C168.741 69.8371 169.187 67.4788 168.233 58.8855C167.506 51.9633 164.166 45.2257 158.882 40.1561L156.028 37.3097L159.384 33.1948C161.345 30.716 164.305 28.6973 166.681 28.3322C174.513 27.0988 174.335 20.1447 166.474 18.6588C161.364 17.6929 154.74 21.8685 151.02 28.6285C148.425 33.023 147.983 33.2107 142.324 32.2768C136.404 31.2934 136.298 31.1376 135.217 25.3698C134.607 22.1337 132.624 17.5522 130.874 15.3217C127.644 11.5902 121.603 9.09137 119.267 10.6851ZM152.156 47.0263C157.007 50.7929 160.433 60.6677 159.219 67.0873C158.08 73.1139 152.402 80.1822 146.468 82.86C139.337 86.1257 127.185 84.3713 121.009 78.9973C114.252 73.1065 111.854 66.4112 113.414 58.1574C114.553 52.1308 115.35 50.7887 120.721 46.7833C130.577 39.1478 142.109 39.1566 152.156 47.0263ZM104.926 54.2461C103.567 59.2813 103.324 63.4418 104.121 67.1206L105.251 72.6263L94.7965 80.5558C89.0646 85.0358 82.5467 89.3672 80.4401 90.4616C74.0635 93.3271 64.6489 95.754 63.9052 94.6635C62.4177 92.4826 67.3045 72.3737 70.7205 66.5061C75.3187 58.6908 85.9293 50.6551 95.2376 48.0725C106.554 44.9194 107.29 45.33 104.926 54.2461Z" fill="#FF6600"/>
<path d="M124.602 52.8091C124.085 53.3899 123.739 55.2241 123.834 56.8705C124.377 61.1796 131.126 61.3697 131.968 56.9153C132.463 54.295 131.825 53.3604 129.124 52.5783C127.339 51.9695 125.275 52.1221 124.602 52.8091Z" fill="#FF6600"/>
<path d="M143.999 57.1542C142.07 60.1819 143.409 63.1489 146.815 63.7928C150.353 64.4614 152.962 61.4266 151.23 58.3853C149.735 55.5246 145.387 54.8383 143.999 57.1542Z" fill="#FF6600"/>
<path d="M123.591 66.0519C121.91 67.7694 123.174 71.1294 126.284 73.3455C133.107 78.1634 146.361 77.6834 147.326 72.5739C147.871 69.6916 144.614 68.2616 140.761 69.976C136.598 71.9028 134.37 71.4818 129.994 68.0762C126.091 65.0317 124.806 64.6531 123.591 66.0519Z" fill="#FF6600"/>
<path d="M286.221 49.4878C271.157 54.1627 253.96 59.639 247.961 61.509C238.63 64.3139 236.763 65.3825 236.097 68.1874C235.563 70.4581 236.097 72.328 237.696 74.198C240.096 76.8694 243.962 77.1365 251.427 75.2665C252.627 74.8658 254.627 78.8729 257.693 88.0891C260.226 95.3018 262.225 102.114 262.225 102.915C262.225 103.85 260.359 105.186 258.093 105.987C254.493 107.189 254.093 107.724 254.893 111.864C255.826 116.406 255.693 116.406 248.628 118.543C244.762 119.745 221.166 127.091 196.104 134.838C171.175 142.585 149.846 148.863 148.779 148.863C147.046 148.863 128.916 117.608 128.916 114.536C128.916 113.734 133.849 112.131 139.848 110.929C145.846 109.727 152.112 107.857 153.845 106.789C157.578 104.251 157.844 99.3089 154.378 96.2368C152.112 94.0997 150.779 93.9662 142.38 95.3018C128.383 97.4389 113.586 97.0382 101.188 94.0997C86.9239 90.6269 85.7241 90.7605 83.8578 94.7676C80.2585 102.648 83.5912 111.197 91.4564 114.936C95.0557 116.673 98.5218 116.94 106.92 116.539L117.718 115.738L127.983 134.037C137.981 151.801 138.248 152.202 135.315 153.271C128.516 155.808 121.051 159.949 120.518 161.552C120.118 162.353 116.518 164.49 112.386 166.227L104.921 169.165L98.3885 163.155C87.4571 152.87 73.9929 147.527 58.929 147.527C33.7336 147.527 12.8041 163.155 3.60582 188.533C1.07295 195.612 0.673019 198.818 1.20625 209.904C1.60618 221.257 2.27273 224.196 6.00538 232.21C11.6044 244.097 17.6033 251.444 26.9349 257.588C46.398 270.677 70.9268 271.212 89.8567 259.324C96.1222 255.317 105.854 245.433 109.986 238.621C114.119 231.809 118.252 217.918 118.252 210.972V205.229L125.317 203.893C131.449 202.825 132.915 203.092 138.248 206.03C141.581 207.9 146.38 210.572 148.913 211.907C152.245 213.777 155.311 214.311 159.977 213.911C165.843 213.377 171.175 210.171 215.7 180.251C242.762 161.953 265.158 147.26 265.425 147.661C265.691 147.928 266.891 150.466 268.091 153.404C269.69 157.278 270.757 158.346 272.49 157.812C281.155 155.141 280.222 154.473 285.954 166.761C289.02 173.039 293.553 180.919 296.219 184.125C301.951 191.204 312.483 198.283 317.148 198.283C319.015 198.283 321.148 199.085 321.814 199.886C323.414 202.023 337.678 237.552 338.878 242.762C339.411 244.899 339.278 247.169 338.345 248.238C337.545 249.173 336.745 251.577 336.612 253.581L336.345 257.053H313.416C294.219 257.053 290.087 257.454 288.354 259.191C285.554 261.862 285.688 263.198 289.02 266.537C291.686 269.208 292.62 269.208 345.943 268.807L400.2 268.407L407.932 264.8C416.064 260.927 428.461 250.108 432.994 242.762C435.26 239.155 435.527 237.953 434.194 236.35C431.661 233.278 429.794 233.946 423.529 240.491C410.465 253.848 401.533 257.053 375.938 257.053C358.341 257.053 358.208 257.053 358.208 253.981C358.208 250.509 356.075 247.303 352.475 245.433C350.209 244.231 344.21 230.34 334.345 204.027L331.279 195.745L334.212 192.673C340.211 186.396 341.411 182.121 341.411 169.566C341.411 161.953 340.611 154.606 339.144 149.531C336.212 139.914 328.08 113.601 324.88 103.45C323.547 99.4425 320.614 89.8255 318.215 82.0786C315.949 74.3316 313.149 65.7832 312.083 62.9782C311.016 60.3069 310.216 57.7691 310.216 57.5019C310.216 57.1012 313.283 55.8991 316.882 54.697C324.214 52.2927 326.347 48.5528 323.547 43.4772C321.281 39.203 316.482 40.0044 286.221 49.4878ZM306.884 78.8729C310.35 89.5584 312.749 98.6411 312.349 99.0418C311.683 99.8432 286.087 107.457 284.221 107.457C283.421 107.457 282.088 105.587 281.288 103.45C279.955 99.9767 279.155 99.4425 276.089 99.7096C272.623 100.11 272.357 99.576 268.091 86.7534C265.558 79.5407 263.558 72.8623 263.558 72.0609C263.558 71.2595 271.823 68.0538 281.955 65.1153C291.953 62.1768 300.352 59.639 300.485 59.5054C300.618 59.5054 303.551 68.1874 306.884 78.8729ZM276.889 110.128C276.889 112.933 267.824 126.156 265.958 126.156C264.625 126.156 260.759 112.799 261.692 111.33C262.092 110.662 263.692 110.128 265.291 110.128C266.891 110.128 269.157 109.46 270.224 108.792C273.69 106.522 276.889 107.189 276.889 110.128ZM323.547 131.766C329.28 150.065 330.879 157.144 331.279 165.96C331.946 178.649 331.146 182.656 327.547 186.262C318.748 195.078 302.218 182.255 292.753 159.148C289.82 151.801 289.82 151.134 291.953 149.531C295.019 147.26 294.886 144.722 290.22 130.163C288.087 123.218 286.221 117.341 286.221 117.207C286.221 116.806 312.616 109.059 314.882 108.926C315.682 108.792 319.548 119.211 323.547 131.766ZM282.088 123.752C283.421 127.625 283.155 128.427 278.089 135.105C275.023 138.979 271.957 142.585 271.423 142.986C270.89 143.253 269.957 141.383 269.424 138.712C268.757 134.972 269.157 133.102 271.69 129.763C273.29 127.358 275.689 124.153 276.756 122.55C279.555 118.543 280.355 118.676 282.088 123.752ZM260.892 131.499C261.959 134.838 262.225 137.376 261.425 138.044C257.293 141.784 175.308 195.745 174.241 195.345C172.908 194.944 152.645 159.415 153.312 158.747C153.445 158.613 163.843 155.408 176.241 151.534C197.304 145.257 212.768 140.448 244.895 130.43C251.827 128.16 257.959 126.29 258.359 126.29C258.759 126.156 259.959 128.56 260.892 131.499ZM286.754 138.979C288.487 143.52 287.421 145.524 281.955 147.794C278.889 149.13 276.223 149.931 275.823 149.664C275.156 148.863 283.688 136.842 285.021 136.842C285.554 136.842 286.354 137.777 286.754 138.979ZM152.379 177.58C164.376 198.684 165.843 202.157 163.443 203.76C159.577 206.164 154.512 204.828 143.58 198.15C129.716 189.735 126.383 186.796 124.117 181.32C121.984 176.378 123.051 172.371 127.716 167.963C130.916 165.025 138.648 162.22 142.114 162.62C143.18 162.754 147.846 169.566 152.379 177.58ZM56.9294 178.782V194.009L52.2636 196.68L47.7311 199.485L35.9999 194.81C29.6011 192.139 23.4688 189.735 22.669 189.334C19.4696 187.998 20.936 185.194 28.4013 177.046C35.9999 168.765 45.3315 163.823 53.3301 163.689L56.9294 163.555V178.782ZM77.9922 167.696C86.2574 171.703 97.9885 183.19 95.9889 185.06C95.3224 185.594 88.7902 188.533 81.1916 191.471C62.3951 198.951 62.2617 198.951 62.2617 178.916V163.555H65.9944C68.1273 163.555 73.4597 165.425 77.9922 167.696ZM32.9338 198.951C39.8658 201.756 45.9981 204.427 46.398 204.828C46.9312 205.229 47.5978 208.167 48.131 211.106C48.9309 216.315 48.3976 217.25 40.1325 228.47C35.2 235.015 30.6675 240.357 29.7344 240.357C27.3348 240.357 19.7362 227.802 17.4699 219.921C14.5371 210.037 15.8702 191.471 19.3363 193.475C19.8695 193.742 26.0017 196.146 32.9338 198.951ZM101.988 210.171C101.321 222.593 97.7219 232.076 91.1898 238.087L87.9904 241.159L78.3921 228.336C70.3936 217.651 69.0605 215.246 70.2603 213.109C70.9268 211.64 71.5934 209.369 71.5934 208.034C71.5934 204.427 99.7216 193.742 101.455 196.68C101.988 197.749 102.254 203.76 101.988 210.171ZM74.5262 231.542C79.5919 238.22 83.3246 244.364 82.9246 245.032C79.8585 249.974 61.3286 254.115 51.997 251.844C43.1986 249.707 35.6 246.234 35.6 244.364C35.6 243.563 39.7325 237.552 44.7983 230.874C53.8633 219.12 53.9966 218.986 59.5956 219.12C65.1945 219.254 65.4612 219.521 74.5262 231.542Z" fill="white"/>
</svg>
