<svg width="420" height="65" viewBox="0 0 420 65" fill="none" xmlns="http://www.w3.org/2000/svg">
<path fill-rule="evenodd" clip-rule="evenodd" d="M8.46533 28.1388L0.245742 21.9485L0 45.1454L7.82411 37.9314L15.9452 40.2693L11.9814 51.6637L47.4187 62.7182L51.3327 51.4082L88.4687 62.9384L88.5014 3.9375L8.46533 28.1388ZM19.4388 47.756L21.4822 42.2897L45.5009 49.8865L43.4574 55.3528L19.4388 47.756Z" fill="white"/>
<path d="M146.817 57.0699C141.657 57.0699 137.084 56.042 133.098 53.9861C129.154 51.8883 126.091 49.0772 123.909 45.5529C121.728 42.0286 120.637 38.1686 120.637 33.973C120.637 29.7774 121.728 25.9174 123.909 22.3931C126.091 18.8687 129.154 16.0786 133.098 14.0228C137.084 11.925 141.657 10.8761 146.817 10.8761C152.272 10.8761 156.824 11.946 160.474 14.0857C164.166 16.1835 166.914 18.575 168.719 21.2602C170.523 23.9454 171.593 26.2321 171.928 28.1201L157.139 29.5676C156.719 28.7285 156.111 27.9103 155.314 27.1131C154.516 26.274 153.405 25.5398 151.978 24.9104C150.552 24.2811 148.831 23.9664 146.817 23.9664C144.552 23.9664 142.559 24.407 140.839 25.288C139.118 26.1691 137.776 27.3859 136.811 28.9382C135.888 30.4487 135.426 32.1269 135.426 33.973C135.426 35.8191 135.888 37.5183 136.811 39.0707C137.776 40.5811 139.118 41.7768 140.839 42.6579C142.559 43.539 144.552 43.9795 146.817 43.9795C149.712 43.9795 151.999 43.4131 153.677 42.2803C155.355 41.1475 156.509 39.8678 157.139 38.4413L171.928 39.8888C171.593 41.651 170.523 43.8746 168.719 46.5598C166.914 49.245 164.166 51.6785 160.474 53.8602C156.824 56 152.272 57.0699 146.817 57.0699ZM188.884 56V25.9803H173.654V11.946L218.904 11.946V25.9803L203.674 25.9803V56H188.884ZM215.345 56L233.722 11.946H249.141L267.581 56H251.532L246.938 42.532V40.644L240.33 22.456H242.155L235.547 40.644V42.532L230.953 56H215.345ZM224.47 48.6367L229.065 36.805H253.987L258.518 48.6367H224.47ZM298.064 56V40.5811L299.197 43.2243C298.525 43.56 297.581 43.8746 296.365 44.1683C295.19 44.462 293.826 44.7138 292.274 44.9236C290.763 45.0914 289.211 45.1753 287.617 45.1753C283.673 45.1753 280.19 44.4201 277.17 42.9097C274.191 41.3573 271.883 39.1965 270.247 36.4274C268.653 33.6583 267.855 30.4487 267.855 26.7985V11.946H282.645V24.2182C282.645 25.7705 282.96 27.0922 283.589 28.183C284.218 29.2319 285.141 30.0501 286.358 30.6375C287.617 31.1829 289.148 31.4556 290.952 31.4556C292.589 31.4556 294.078 31.2668 295.421 30.8892C296.763 30.4696 298.064 29.8822 299.323 29.127L298.064 33.6583V11.946H312.853V56L298.064 56ZM350.664 56L334.805 33.6583L349.72 11.946L366.398 11.946L348.021 37.1826V29.0012L368.034 56H350.664ZM321.777 56V11.946L336.567 11.946V56H321.777ZM367.764 56L386.141 11.946L401.56 11.946L420 56H403.951L399.357 42.532V40.644L392.749 22.456H394.574L387.966 40.644V42.532L383.372 56H367.764ZM376.89 48.6367L381.484 36.805H406.406L410.937 48.6367H376.89Z" fill="white"/>
</svg>
